<svg width="146" height="145" viewBox="0 0 146 145" fill="none" xmlns="http://www.w3.org/2000/svg">
<path d="M133.959 11.0844C141.252 18.2906 145.121 28.9802 145.121 42.5811V102.363C145.121 115.95 141.252 126.654 133.959 133.846C126.885 140.939 116.182 144.93 102.5 144.93H42.5711C28.953 144.93 18.2359 141.002 11.0984 133.846C3.8053 126.654 0 115.95 0 102.363V42.5811C0 28.9802 3.86911 18.2906 11.0984 11.0844C18.1721 4.00568 28.953 0 42.5711 0H102.5C116.182 0 126.821 3.94194 133.959 11.0844ZM64.8722 42.6743V64.7545H42.764C38.2194 64.7545 35.0538 67.9442 35.0538 72.4472C35.0538 76.8726 38.2833 79.9488 42.764 79.9488H64.8722V102.079C64.8722 106.49 67.9382 109.715 72.3831 109.715C76.8778 109.715 80.0856 106.554 80.0856 102.079V79.9488H102.257C106.661 79.9488 109.89 76.8726 109.89 72.4472C109.89 67.9442 106.661 64.7545 102.257 64.7545H80.0856V42.6743C80.0856 38.1992 76.8778 34.9739 72.3831 34.9739C67.9382 34.9739 64.8722 38.1992 64.8722 42.6743Z" fill="black"/>
</svg>
