<svg width="215" height="189" viewBox="0 0 215 189" fill="none" xmlns="http://www.w3.org/2000/svg">
<g clip-path="url(#clip0_3_15)">
<path d="M0 163.634C0 177.305 6.7081 184.154 20.4131 184.154H136.229C149.85 184.154 156.627 177.305 156.627 163.634V20.5884C156.627 6.90258 149.85 0 136.229 0H118.919C105.282 0 98.5062 6.90258 98.5062 20.5884V53.3364C96.9189 52.9817 95.0903 52.71 93.0951 52.71H58.1707C56.1078 52.71 54.3021 52.9817 52.6624 53.3364V43.9595C52.6624 30.2886 45.9543 23.371 32.3174 23.371H20.4131C6.7081 23.371 0 30.2886 0 43.9595V163.634ZM15.562 161.61V45.915C15.562 41.3691 17.9551 38.9113 22.7116 38.9113H30.0189C34.7753 38.9113 37.1004 41.3691 37.1004 45.915V168.614H22.7116C17.9551 168.614 15.562 166.141 15.562 161.61ZM52.6624 168.614V75.2539C52.6624 70.708 55.0556 68.2502 59.812 68.2502H91.4246C96.1805 68.2502 98.5062 70.708 98.5062 75.2539V168.614H52.6624ZM114.068 168.614V22.5439C114.068 17.998 116.461 15.5402 121.217 15.5402H133.93C138.739 15.5402 141.065 17.998 141.065 22.5439V161.61C141.065 166.141 138.739 168.614 133.93 168.614H114.068ZM59.5714 83.8039C59.5714 86.8081 61.8484 89.1653 65.0083 89.1653H86.5132C89.5374 89.1653 91.8673 86.8081 91.8673 83.8039C91.8673 80.8373 89.5374 78.4955 86.5132 78.4955H65.0083C61.8334 78.4955 59.5714 80.8373 59.5714 83.8039ZM59.5714 153.075C59.5714 156.095 61.8334 158.437 65.0083 158.437H86.5132C89.5374 158.437 91.8673 156.095 91.8673 153.075C91.8673 150.108 89.5374 147.752 86.5132 147.752H65.0083C61.8484 147.752 59.5714 150.108 59.5714 153.075ZM161.227 166.267C162.819 179.788 170.153 186.148 183.76 184.423L193.719 183.218C207.326 181.493 213.137 174.169 211.681 160.649L198.215 39.6157C196.706 26.0955 189.289 19.667 175.683 21.4602L165.738 22.665C152.048 24.4582 146.169 31.6988 147.693 45.2339L161.227 166.267ZM176.466 162.558L163.413 45.557C162.892 41.0259 164.968 38.4704 169.724 37.8142L175.086 37.1578C179.843 36.5016 182.47 38.7787 182.991 43.2566L196.044 160.258C196.565 164.842 194.474 167.345 189.785 168.001L184.288 168.725C179.644 169.381 176.987 167.172 176.466 162.558Z" fill="currentColor"/>
</g>
<defs>
<clipPath id="clip0_3_15">
<rect width="215" height="189" fill="white"/>
</clipPath>
</defs>
</svg>
