<svg width="239" height="212" viewBox="0 0 239 212" fill="none" xmlns="http://www.w3.org/2000/svg">
<g clip-path="url(#clip0_3_50)">
<path d="M80.9626 162.408H196.355C200.988 162.408 205.09 158.805 205.09 153.646C205.09 148.506 200.988 144.938 196.355 144.938H83.1651C78.3357 144.938 75.3659 141.505 74.6165 136.346L58.7348 27.3184C57.6008 18.7864 54.1295 14.4707 43.1447 14.4707H9.15502C4.22662 14.4707 0 18.7467 0 23.7329C0 28.7826 4.22662 33.0764 9.15502 33.0764H40.393L55.7534 138.366C57.942 153.24 65.8759 162.408 80.9626 162.408ZM63.6158 126.072H197.088C212.22 126.072 220.19 116.857 222.361 101.849L229.844 51.9562C230.043 50.6128 230.277 48.954 230.277 47.8469C230.277 42.1919 226.262 38.2216 219.508 38.2216H54.7422L54.8235 55.7916H209.947L203.587 100.063C202.901 105.321 200.129 108.583 195.138 108.583H63.4532L63.6158 126.072ZM89.0431 212C98.5888 212 106.208 204.438 106.208 194.803C106.208 185.285 98.5888 177.624 89.0431 177.624C79.4519 177.624 71.7797 185.285 71.7797 194.803C71.7797 204.438 79.4519 212 89.0431 212ZM180.707 212C190.316 212 197.952 204.438 197.952 194.803C197.952 185.285 190.316 177.624 180.707 177.624C171.197 177.624 163.461 185.285 163.461 194.803C163.461 204.438 171.197 212 180.707 212Z" fill="currentColor"/>
</g>
<defs>
<clipPath id="clip0_3_50">
<rect width="239" height="212" fill="white"/>
</clipPath>
</defs>
</svg>
