<svg width="100" height="100" viewBox="0 0 100 100" fill="none" xmlns="http://www.w3.org/2000/svg">
<g clip-path="url(#clip0_1_59)">
<path d="M62.6517 39.7576H17.0028C12.517 39.7576 9.97857 42.2953 9.97857 46.7704V64.4326C9.97857 68.9318 12.517 71.4694 17.0028 71.4694H69.9584C74.4684 71.4694 76.9774 68.9318 76.9774 64.4326V48.4542L82.4143 43.0322C82.6523 44.1251 82.7668 45.323 82.7668 46.6115V64.5864C82.7668 72.7054 78.2456 77.2158 70.1072 77.2158H16.854C8.73981 77.2158 4.19437 72.7054 4.19437 64.5864V46.6115C4.19437 38.5165 8.73981 33.9872 16.854 33.9872H68.4344L62.6517 39.7576Z" fill="currentColor"/>
<path d="M63.5151 55.2534L89.703 29.1469L84.8154 24.2707L58.6516 50.3772L56.1321 56.3579C55.8374 57.1218 56.6273 57.9054 57.3991 57.6219L63.5151 55.2534ZM91.8582 27.0021L94.3158 24.5375C95.5387 23.2858 95.6508 21.4508 94.3932 20.2286L93.5458 19.4263C92.4571 18.4019 90.645 18.4573 89.4545 19.6637L86.9948 22.1501L91.8582 27.0021Z" fill="currentColor"/>
<path d="M47.0583 60.0223C49.4811 60.0223 51.4501 58.0631 51.4501 55.6464C51.4501 53.2294 49.4811 51.2702 47.0583 51.2702C44.6355 51.2702 42.6716 53.2294 42.6716 55.6464C42.6716 58.0631 44.6355 60.0223 47.0583 60.0223Z" fill="currentColor"/>
<path d="M34.0839 60.0223C36.5067 60.0223 38.4706 58.0631 38.4706 55.6464C38.4706 53.2294 36.5067 51.2702 34.0839 51.2702C31.6611 51.2702 29.6973 53.2294 29.6973 55.6464C29.6973 58.0631 31.6611 60.0223 34.0839 60.0223Z" fill="currentColor"/>
<path d="M21.1095 60.0223C23.5322 60.0223 25.4961 58.0631 25.4961 55.6464C25.4961 53.2294 23.5322 51.2702 21.1095 51.2702C18.6868 51.2702 16.7229 53.2294 16.7229 55.6464C16.7229 58.0631 18.6868 60.0223 21.1095 60.0223Z" fill="currentColor"/>
</g>
<defs>
<clipPath id="clip0_1_59">
<rect width="100" height="71" fill="white" transform="translate(0 14)"/>
</clipPath>
</defs>
</svg>
