<svg width="272" height="210" viewBox="0 0 272 210" fill="currentColor" xmlns="http://www.w3.org/2000/svg">
<path d="M225.842 94.468C221.853 93.5648 217.705 93.1037 213.459 93.1037C211.4 93.1037 209.364 93.213 207.359 93.4327C201.905 58.0835 171.337 31.1294 134.387 31.1294C93.501 31.1294 60.4445 64.1334 60.4445 104.955C60.4445 145.777 93.501 178.781 134.387 178.781C143.273 178.781 151.79 177.223 159.639 174.283C162.088 180.029 165.436 185.311 169.542 189.914C158.72 194.421 146.841 196.892 134.387 196.892C83.5577 196.892 42.3057 155.705 42.3057 104.955C42.3057 54.2061 83.5577 13.0193 134.387 13.0193C181.675 13.0193 220.664 48.6436 225.842 94.468Z" fill="currentColor"/>
<path d="M141.421 50.6085V108.914C141.421 112.939 138.288 116.01 134.314 116.01H89.3216C85.2906 116.01 82.2151 112.939 82.2151 108.914C82.2151 104.963 85.2906 101.892 89.3216 101.892H127.281V50.6085C127.281 46.6409 130.356 43.5863 134.314 43.5863C138.288 43.5863 141.421 46.6409 141.421 50.6085Z" fill="currentColor"/>
<path d="M259.337 151.535C259.337 176.583 238.416 197.358 213.459 197.358C188.34 197.358 167.581 176.729 167.581 151.535C167.581 126.472 188.34 105.746 213.459 105.746C238.635 105.746 259.337 126.399 259.337 151.535ZM205.265 173.297C205.265 177.865 208.877 181.35 213.459 181.35C218.098 181.35 221.653 177.865 221.726 173.297C221.726 168.851 218.066 165.235 213.459 165.235C208.893 165.235 205.265 168.835 205.265 173.297ZM206.611 128.269L207.373 153.435C207.478 156.846 209.938 159.254 213.459 159.254C216.965 159.254 219.53 156.846 219.635 153.435L220.38 128.269C220.502 124.235 217.637 121.455 213.459 121.455C209.266 121.455 206.506 124.251 206.611 128.269Z" fill="currentColor"/>
</svg>
