<svg width="174" height="164" viewBox="0 0 174 164" fill="currentColor" xmlns="http://www.w3.org/2000/svg">
<path d="M60.4969 163.919H110.48C121.046 163.919 126.698 160.387 132.368 154.192L163.859 119.188C169.463 112.911 170.977 108.728 170.977 100.177V63.8079C170.977 55.1909 169.198 51.28 163.506 44.7977L132.368 9.79356C126.742 3.55403 121.046 0 110.48 0H60.4969C49.931 0 44.2127 3.59802 38.6235 9.79356L7.13323 44.7977C1.44756 51.0746 0 55.1909 0 63.8079V100.177C0 108.728 1.44756 112.911 7.13323 119.188L38.6235 154.192C44.2127 160.387 49.931 163.919 60.4969 163.919ZM64.4671 148.184C56.6803 148.184 54.1496 146.377 49.8918 141.693L21.563 110.536C18.3918 106.937 17.6271 104.724 17.6271 98.7466V65.224C17.6271 59.2468 18.3918 57.0339 21.563 53.4489L49.8918 22.292C54.1496 17.5419 56.6803 15.8015 64.4671 15.8015H106.525C114.297 15.8015 116.761 17.5419 121.085 22.292L149.347 53.4489C152.6 57.0339 153.35 59.2468 153.35 65.224V98.7466C153.35 104.724 152.6 106.937 149.347 110.536L121.085 141.693C116.761 146.377 114.297 148.184 106.525 148.184H64.4671Z" fill="currentColor"/>
<path d="M85.4842 95.5252C89.9052 95.5252 92.4867 93.0615 92.6272 88.355L93.8301 48.7232C93.9849 43.9959 90.3645 40.5771 85.4031 40.5771C80.3593 40.5771 76.8874 43.929 77.0426 48.6563L78.2304 88.3851C78.3709 92.9947 80.9817 95.5252 85.4842 95.5252ZM85.4842 122.519C90.7225 122.519 95.0272 118.727 95.0272 113.59C95.0272 108.469 90.7894 104.648 85.4842 104.648C80.2465 104.648 75.9643 108.521 75.9643 113.59C75.9643 118.66 80.3135 122.519 85.4842 122.519Z" fill="currentColor"/>
</svg>
