<svg width="251" height="246" viewBox="0 0 251 246" fill="currentColor" xmlns="http://www.w3.org/2000/svg">
<g clip-path="url(#clip0_5_93)">
<path d="M246.583 122.94C246.583 190.706 191.354 245.881 123.281 245.881C55.3272 245.881 0 190.706 0 122.94C0 55.0765 55.3272 0 123.281 0C191.354 0 246.583 55.0765 246.583 122.94ZM93.5112 161.395C87.3122 161.395 82.9991 165.296 82.9991 171.1C82.9991 176.957 87.3122 180.956 93.5112 180.956H153.366C159.565 180.956 163.977 176.957 163.977 171.1C163.977 165.296 159.565 161.395 153.366 161.395H93.5112ZM75.7164 120.379C69.4197 120.379 65.1064 124.324 65.1064 130.181C65.1064 136.179 69.4197 140.06 75.7164 140.06H171.259C177.458 140.06 181.771 136.179 181.771 130.181C181.771 124.324 177.458 120.379 171.259 120.379H75.7164ZM58.5303 79.5799C52.3099 79.5799 47.9204 83.4812 47.9204 89.3821C47.9204 95.2615 52.3099 99.1629 58.5303 99.1629H188.445C194.567 99.1629 199.055 95.2615 199.055 89.3821C199.055 83.4812 194.567 79.5799 188.445 79.5799H58.5303Z" fill="currentColor" />
</g>
<defs>
<clipPath id="clip0_5_93">
<rect width="251" height="246" fill="white"/>
</clipPath>
</defs>
</svg>
