<svg width="100" height="100" viewBox="0 0 100 100" fill="currentColor" xmlns="http://www.w3.org/2000/svg">
<path d="M37.5945 87.0383H60.9129V61.3972C60.9129 59.5014 59.688 58.2699 57.8035 58.2699H40.7444C38.8596 58.2699 37.5945 59.5014 37.5945 61.3972V87.0383ZM4.12291 50.8154C5.37592 50.8154 6.49257 50.1702 7.47773 49.3492L47.5478 15.5113C48.0931 15.0585 48.7045 14.8118 49.2502 14.8118C49.836 14.8118 50.4143 15.0585 50.9596 15.5113L91.0626 49.3492C92.0148 50.1702 93.1314 50.8154 94.3843 50.8154C96.9406 50.8154 98.5075 49.0284 98.5075 46.9342C98.5075 45.8038 98.0134 44.6109 96.9261 43.7345L54.8899 8.23967C53.1317 6.75142 51.1873 6 49.2502 6C47.3202 6 45.3758 6.75142 43.6176 8.23967L1.58139 43.7345C0.52686 44.6109 0 45.8038 0 46.9342C0 49.0284 1.56686 50.8154 4.12291 50.8154ZM74.8591 27.2916L86.2557 36.9303V17.8865C86.2557 16.0575 85.097 14.8922 83.2856 14.8922H77.8434C76.0654 14.8922 74.8591 16.0575 74.8591 17.8865V27.2916ZM21.979 92.919H76.5615C82.6676 92.919 86.2557 89.377 86.2557 83.4046V38.2294L78.3519 32.821V81.0073C78.3519 83.5716 76.9618 84.9697 74.4783 84.9697H24.0622C21.5457 84.9697 20.1555 83.5716 20.1555 81.0073V32.8543L12.2518 38.2294V83.4046C12.2518 89.4103 15.8398 92.919 21.979 92.919Z" fill="currentColor"/>
</svg>