<svg width="200" height="194" viewBox="0 0 200 194" fill="currentColor" xmlns="http://www.w3.org/2000/svg">
<g clip-path="url(#clip0_4_75)">
<path d="M21.9474 188.911H110.733C125.132 188.911 132.68 181.193 132.68 165.655V98.5314C132.68 83.1235 125.132 75.4052 110.733 75.4052H21.9474C7.532 75.4052 0 83.1235 0 98.5314V165.655C0 181.193 7.532 188.911 21.9474 188.911ZM98.4815 83.2069H116.159V51.3195C116.159 29.0649 130.477 16.9719 147.439 16.9719C164.367 16.9719 178.737 29.0649 178.737 51.3195V72.2568C178.737 78.3602 182.671 81.8857 187.653 81.8857C192.481 81.8857 196.492 78.5933 196.492 72.2568V53.0027C196.492 18.0334 173.261 0 147.439 0C121.54 0 98.4815 18.0334 98.4815 53.0027V83.2069Z" fill="currentColor"/>
</g>
<defs>
<clipPath id="clip0_4_75">
<rect width="200" height="194" fill="white"/>
</clipPath>
</defs>
</svg>
