<svg width="200" height="196" viewBox="0 0 200 196" fill="currentColor" xmlns="http://www.w3.org/2000/svg">
<g clip-path="url(#clip0_4_66)">
<path d="M196.113 34.0952V161.953C196.113 184.374 184.41 195.962 161.647 195.962H34.466C11.7884 195.962 0 184.374 0 161.953V34.0952C0 11.6933 11.7884 0 34.466 0H161.647C184.41 0 196.113 11.6933 196.113 34.0952ZM87.9953 32.3672C77.848 32.3672 71.7373 38.1498 71.7373 47.4431V55.3443H46.8344C43.9534 55.3443 41.6442 57.6141 41.5874 60.6167C41.5496 63.4954 43.9534 65.698 46.8344 65.698H55.0169L58.7426 148.975C59.0095 156.815 63.5631 161.061 71.4283 161.061H125.329C133.127 161.061 137.834 156.815 138.187 148.975L141.846 65.698H149.751C152.756 65.698 154.894 63.4954 154.98 60.6167C155.066 57.6141 152.756 55.3443 149.751 55.3443H125.001V47.4431C125.001 38.1498 118.738 32.3672 108.677 32.3672H87.9953ZM81.8553 78.5966L83.862 140.513C83.8809 142.727 82.4016 144.339 79.9282 144.339C77.6651 144.339 75.8791 142.745 75.8601 140.551L73.7483 78.6533C73.7293 76.2114 75.2571 74.666 77.8543 74.666C80.1174 74.666 81.8363 76.1064 81.8553 78.5966ZM102.356 78.5589V140.551C102.356 142.745 100.761 144.339 98.2687 144.339C95.7576 144.339 94.1816 142.745 94.1816 140.551V78.5589C94.1816 76.1546 95.6715 74.666 98.2687 74.666C100.761 74.666 102.356 76.1546 102.356 78.5589ZM122.666 78.6533L120.572 140.551C120.554 142.745 118.768 144.339 116.504 144.339C114.098 144.339 112.551 142.727 112.571 140.513L114.577 78.5966C114.683 76.1064 116.315 74.666 118.683 74.666C121.262 74.666 122.684 76.2114 122.666 78.6533ZM113.012 47.8168V55.3443H83.5068V47.8168C83.5068 45.0767 85.5221 43.292 88.4072 43.292H108.111C111.016 43.292 113.012 45.0767 113.012 47.8168Z" fill="currentColor" />
</g>
<defs>
<clipPath id="clip0_4_66">
<rect width="200" height="196" fill="white"/>
</clipPath>
</defs>
</svg>
