<svg width="200" height="196" viewBox="0 0 200 196" fill="currentColor" xmlns="http://www.w3.org/2000/svg">
<g clip-path="url(#clip0_4_57)">
<path d="M196.113 34.0952V161.953C196.113 184.374 184.41 195.962 161.647 195.962H34.466C11.7884 195.962 0 184.374 0 161.953V34.0952C0 11.6933 11.7884 0 34.466 0H161.647C184.41 0 196.113 11.6933 196.113 34.0952ZM44.649 75.0608C41.31 78.5127 41.31 84.1651 45.0315 88.0454L86.8354 132.479C93.9295 140.045 103.001 140.064 110.095 132.518L151.898 88.0642C155.62 84.184 155.707 78.4266 152.281 75.0608C148.36 71.2855 142.55 71.1994 139.087 74.9075L98.5083 117.994L57.8433 74.9075C54.3802 71.1994 48.465 71.1994 44.649 75.0608Z" fill="currentColor" />
</g>
<defs>
<clipPath id="clip0_4_57">
<rect width="200" height="196" fill="white"/>
</clipPath>
</defs>
</svg>
