<svg width="100" height="100" viewBox="0 0 100 100" fill="none" xmlns="http://www.w3.org/2000/svg">
<g clip-path="url(#clip0_1_65)">
<path d="M26.2809 97.4175H71.9163C79.317 97.4175 83.197 93.4356 83.197 85.4198V50.7901C83.197 42.8009 79.317 38.8591 71.9163 38.8591H26.2809C18.8714 38.8591 15 42.8009 15 50.7901V85.4198C15 93.4356 18.8714 97.4175 26.2809 97.4175ZM23.9143 42.9672H33.0402V26.4761C33.0402 15.0349 40.3601 8.75592 49.0785 8.75592C57.7795 8.75592 65.2053 15.0349 65.2053 26.4761V42.9672H74.2912V27.3846C74.2912 9.34367 62.3906 0 49.0785 0C35.8064 0 23.9143 9.34367 23.9143 27.3846V42.9672Z" fill="currentColor"/>
</g>
<defs>
<clipPath id="clip0_1_65">
<rect width="70" height="100" fill="white" transform="translate(15)"/>
</clipPath>
</defs>
</svg>
