<svg width="277" height="215" viewBox="0 0 277 215" fill="currentColor" xmlns="http://www.w3.org/2000/svg">
<g clip-path="url(#clip0_9_6)">
<path d="M272.246 37.3834V176.984C272.246 201.442 259.466 214.116 234.606 214.116H38.1299C13.3644 214.116 0.490601 201.442 0.490601 176.984V37.3834C0.490601 12.9036 13.3644 0.157043 38.1299 0.157043H234.606C259.466 0.157043 272.246 12.9036 272.246 37.3834ZM91.305 96.0774C83.9456 96.0774 78.9957 100.406 78.9957 107.423C78.9957 114.347 84.1337 118.581 91.305 118.581H181.66C188.832 118.581 193.855 114.347 193.855 107.423C193.855 100.406 189.114 96.0774 181.66 96.0774H91.305Z" fill="currentColor"/>
</g>
<defs>
<clipPath id="clip0_9_6">
<rect width="276" height="214" fill="white" transform="translate(0.490601 0.115784)"/>
</clipPath>
</defs>
</svg>
