<svg width="200" height="188" viewBox="0 0 200 188" fill="currentColor" xmlns="http://www.w3.org/2000/svg">
<path d="M0 66.5818C0 108.167 34.8474 149.229 89.2069 184.268C92.1059 186.111 95.705 188 98.2016 188C100.681 188 104.298 186.111 107.276 184.268C161.556 149.229 196.403 108.167 196.403 66.5818C196.403 30.7778 171.711 5.93713 139.915 5.93713C121.439 5.93713 106.944 14.4496 98.2016 27.2739C89.619 14.5295 74.9466 5.93713 56.4885 5.93713C24.6918 5.93713 0 30.7778 0 66.5818ZM19.5721 66.4942C19.5721 41.7955 35.7864 25.2162 57.5365 25.2162C75.0963 25.2162 85.0011 35.8682 91.1007 45.1633C93.7781 49.0915 95.6409 50.3548 98.2016 50.3548C100.763 50.3548 102.413 48.9941 105.267 45.1633C111.853 36.0102 121.387 25.2162 138.866 25.2162C160.617 25.2162 176.813 41.7955 176.813 66.4942C176.813 100.949 140.951 138.998 100.069 166.231C99.201 166.842 98.5904 167.276 98.2016 167.276C97.8127 167.276 97.2022 166.842 96.4147 166.231C55.4346 138.998 19.5721 100.949 19.5721 66.4942Z" fill="currentColor"/>
</svg>
