<svg width="100" height="100" viewBox="0 0 100 100" fill="currentColor" xmlns="http://www.w3.org/2000/svg">
<g clip-path="url(#clip0_1_3)">
<path d="M78.0591 70.481L81.6667 71.0456C83.256 71.2795 84.6884 72.2375 85.6174 73.6078L94.2678 86.4845C95.1851 87.8911 95.2936 89.4054 94.2905 90.4366L86.4808 98.209C85.437 99.2553 83.9642 99.2407 82.5166 98.3011L69.5214 89.5778C68.1933 88.7014 67.1823 87.2684 66.9548 85.6793L66.387 82.0967L49.788 65.5776C51.0043 63.9625 52.3854 62.234 53.9402 60.3958L72.9574 79.3139L73.7716 83.8842L83.8145 91.4331L87.4338 87.8317L79.8629 77.7888L75.2628 77.0196L56.0506 57.945C57.3812 56.396 58.8683 54.7508 60.5042 53.0177L78.0591 70.481ZM28.6838 8.96205L51.3239 31.5308C51.6482 32.7621 52.0805 33.9742 52.6121 35.1557C51.3895 36.3666 50.1998 37.5197 49.0731 38.5659L23.684 13.2805C20.782 10.426 17.8225 10.3925 15.0248 13.2102L8.87169 19.3744C6.04769 22.2256 6.00664 25.0891 8.91601 27.9844L33.1049 52.0748C31.1216 53.5425 29.2906 54.7973 27.6017 55.8808L4.56922 32.9266C-1.48368 26.9029 -1.50585 20.4485 4.40163 14.5696L10.1892 8.79531C16.0967 2.91637 22.6046 2.9458 28.6838 8.96205ZM16.4384 23.3667L31.429 38.2996C32.1633 39.0303 32.1296 40.169 31.4216 40.8589C30.7283 41.5676 29.5504 41.5823 28.8161 40.8516L13.8404 26.0078C13.106 25.3032 13.1471 24.1163 13.8551 23.3594C14.5895 22.6916 15.7862 22.7439 16.4384 23.3667ZM21.6567 18.2071L36.6547 33.0917C37.3554 33.7963 37.348 34.9424 36.6062 35.7328C35.9541 36.3745 34.7014 36.4562 34.0008 35.7254L19.0924 20.7739C18.3991 20.0766 18.3654 18.9159 19.1146 18.1998C19.7815 17.5246 20.9372 17.4911 21.6567 18.2071Z" fill="currentColor"/>
<path d="M7.06296 93.2683C14.357 100.445 24.1924 100.402 31.2523 93.3353C39.9346 84.6279 39.8909 73.5006 65.4433 47.9058C74.2468 51.8207 84.7805 50.35 91.8004 43.3979C99.4369 35.8056 100.636 23.7346 94.6745 14.1576L83.3922 25.3777C82.3425 26.415 81.1014 26.4747 79.9916 25.385L75.3507 20.7478C74.2262 19.5952 74.1328 18.3191 75.1749 17.2671L86.4833 6.07328C76.927 0.181257 64.8385 1.34119 57.2096 8.96695C50.1825 15.9601 48.671 26.3946 52.6121 35.1558C26.7716 60.7461 15.7304 60.5411 6.98082 69.1476C-0.153859 76.1733 -0.197388 85.9948 7.06296 93.2683ZM62.3253 38.2734C55.2216 31.2116 54.9415 20.0684 61.6869 13.4228C65.3857 9.70832 70.635 8.15112 75.7049 8.85495L70.2153 14.3105C67.1688 17.3162 67.2512 21.2169 70.4281 24.3044L76.4177 30.2095C79.4865 33.256 83.4326 33.3378 86.3369 30.4138L91.8866 24.8651C92.6272 29.9773 91.0363 35.1942 87.2967 38.9494C80.585 45.6287 69.4474 45.3018 62.3253 38.2734ZM11.735 88.6114C7.17466 83.9913 7.36029 78.2107 11.634 73.9238C21.1294 64.5488 27.9232 67.5333 55.8445 40.4453C56.4497 41.2488 57.115 41.9854 57.8215 42.722C58.5205 43.4176 59.2943 44.1203 60.1018 44.7083C32.9083 72.5016 35.9147 79.2625 26.5014 88.6449C22.1866 92.9649 16.3365 93.1089 11.735 88.6114ZM19.0045 86.3284C21.7011 86.3284 23.905 84.1278 23.905 81.4518C23.905 78.7753 21.7011 76.6011 19.0045 76.6011C16.3152 76.6011 14.1303 78.7753 14.1303 81.4518C14.1303 84.1278 16.3152 86.3284 19.0045 86.3284Z" fill="currentColor"/>
</g>
<defs>
<clipPath id="clip0_1_3">
<rect width="100" height="99" fill="white"/>
</clipPath>
</defs>
</svg>
