<svg width="198" height="211" viewBox="0 0 198 211" fill="none" xmlns="http://www.w3.org/2000/svg">
<g clip-path="url(#clip0_3_6)">
<path d="M13.7287 166.51L89.3217 208.783C94.5485 211.738 99.9015 211.738 105.223 208.783L180.721 166.51C189.918 161.385 194.467 155.991 194.467 142.494V65.2366C194.467 55.037 190.701 48.5827 182.199 43.8049L115.061 6.11695C103.249 -0.530501 91.218 -0.530501 79.4066 6.11695L12.3461 43.8049C3.76589 48.5827 0 55.037 0 65.2366V142.494C0 155.991 4.62716 161.385 13.7287 166.51ZM24.0581 151.827C18.8294 148.94 16.9885 145.845 16.9885 140.829V71.1173L88.4146 111.505V188.213L24.0581 151.827ZM170.47 151.827L106.035 188.213V111.505L177.479 71.1173V140.829C177.479 145.845 175.638 148.94 170.47 151.827ZM97.264 95.8853L26.6437 56.2453L53.2955 41.0805L123.985 80.8257L97.264 95.8853ZM142.039 70.8192L71.2006 31.1179L87.0071 22.161C93.9468 18.2474 100.485 18.1346 107.521 22.161L167.902 56.2453L142.039 70.8192Z" fill="currentColor"/>
</g>
<defs>
<clipPath id="clip0_3_6">
<rect width="198" height="211" fill="white"/>
</clipPath>
</defs>
</svg>
