<svg width="156" height="193" viewBox="0 0 156 193" fill="none" xmlns="http://www.w3.org/2000/svg">
<g clip-path="url(#clip0_3_26)">
<path d="M28.6901 193H144.48C149.118 193 152.707 189.477 152.707 184.757C152.707 180.801 150.009 177.891 146.649 176.38C135.72 171.551 133.534 156.452 144.684 145.735C149.077 141.784 152.643 137.382 152.643 128.367V29.2906C152.643 10.0965 142.817 0.0160542 123.734 0.0160542H28.9091C9.84165 0.0160542 0 10.0234 0 29.2906V164.091C0 183.139 9.91467 193 28.6901 193ZM17.4401 135.668V30.3769C17.4401 22.0838 21.7094 17.5064 30.3013 17.5064H122.284C130.934 17.5064 135.202 22.0838 135.202 30.3769V125.73C135.202 130.033 132.748 132.493 128.276 132.493H30.9725C25.6671 132.493 21.1646 133.581 17.4401 135.668ZM30.9333 176.457C21.494 176.457 16.5588 171.143 16.5588 162.702C16.5588 154.642 22.2399 149.036 31.6063 149.036H120.646C121.675 149.036 122.648 148.963 123.457 148.817C119.129 158.221 119.682 168.417 124.368 176.457H30.9333ZM27.8961 140.725H40.4706V13.1129H27.8961V140.725Z" fill="currentColor"/>
<path d="M56.3886 58.5847H119.066C122.527 58.5847 125.317 55.7003 125.317 52.2485C125.317 48.7807 122.527 45.9855 119.066 45.9855H56.3886C52.9437 45.9855 50.1379 48.7807 50.1379 52.2485C50.1379 55.7003 52.9437 58.5847 56.3886 58.5847Z" fill="currentColor"/>
<path d="M56.3886 83.3854H103.963C107.408 83.3854 110.214 80.5169 110.214 77.0492C110.214 73.5975 107.408 70.7862 103.963 70.7862H56.3886C52.9437 70.7862 50.1379 73.5975 50.1379 77.0492C50.1379 80.5169 52.9437 83.3854 56.3886 83.3854Z" fill="currentColor"/>
</g>
<defs>
<clipPath id="clip0_3_26">
<rect width="156" height="193" fill="white"/>
</clipPath>
</defs>
</svg>
