<svg width="156" height="190" viewBox="0 0 156 190" fill="currentColor" xmlns="http://www.w3.org/2000/svg">
<path d="M52.7543 151.457C49.4176 151.457 47.2381 149.416 47.0688 146.123L44.7247 61.5135C44.6191 58.2702 46.7845 56.1645 50.2269 56.1645C53.4642 56.1645 55.7213 58.2064 55.813 61.4356L58.2984 146.095C58.3901 149.338 56.1609 151.457 52.7543 151.457ZM76.5699 151.457C73.2052 151.457 70.9124 149.366 70.9124 146.136V61.4854C70.9124 58.2562 73.2052 56.1645 76.5699 56.1645C79.9204 56.1645 82.277 58.2562 82.277 61.4854V146.136C82.277 149.366 79.9204 151.457 76.5699 151.457ZM100.435 151.457C97.0285 151.457 94.7991 149.338 94.8913 146.095L97.3132 61.4995C97.4182 58.2064 99.6619 56.1645 102.899 56.1645C106.341 56.1645 108.507 58.2702 108.401 61.5135L106.057 146.123C105.888 149.416 103.708 151.457 100.435 151.457ZM41.2838 35.7991H55.6188V19.6371C55.6188 15.6079 58.4321 13.0229 62.7568 13.0229H90.2417C94.566 13.0229 97.38 15.6079 97.38 19.6371V35.7991H111.715V18.915C111.715 7.01571 104.134 0 91.2637 0H61.7347C48.8646 0 41.2838 7.01571 41.2838 18.915V35.7991ZM6.87387 44.2652H146.316C150.143 44.2652 153.126 41.2196 153.126 37.3849C153.126 33.5783 150.143 30.5965 146.316 30.5965H6.87387C3.10995 30.5965 0 33.5783 0 37.3849C0 41.2834 3.10995 44.2652 6.87387 44.2652ZM40.8986 175.589H112.291C124.181 175.589 131.903 168.296 132.461 156.37L137.8 42.6451H15.3261L20.7289 156.434C21.3005 168.36 28.8813 175.589 40.8986 175.589Z" fill="currentColor"/>
</svg>
