<?xml version="1.0" encoding="UTF-8"?>
<svg id="Layer_2" data-name="Layer 2" xmlns="http://www.w3.org/2000/svg" viewBox="0 0 679.99 688.29">
  <defs>
    <style>
      .cls-1 {
        fill: #fef7e4;
      }

      .cls-2 {
        fill: #ff844b;
      }

      .cls-3 {
        fill: #67b684;
      }

      .cls-4 {
        fill: #ffbc42;
      }

      .cls-5 {
        fill: #e35b68;
      }

      .cls-6 {
        fill: #fff;
      }

      .cls-7 {
        fill: #3ac;
      }
    </style>
  </defs>
  <g id="Layer_1-2" data-name="Layer 1">
    <g>
      <g>
        <path class="cls-7" d="M336.51,685.58c-52.25,0-104.68-13.35-151.63-38.61-45.1-24.26-85.17-59.4-115.89-101.62-30.86-42.41-51.97-91.62-61.05-142.31-9.77-54.56-5.96-109.36,11.35-162.87,22.88-70.76,65.75-130.64,123.98-173.18C200.82,24.94,269.27,2.71,341.2,2.71c14.29,0,28.79.9,43.11,2.68,51.98,6.46,100.45,25.06,144.07,55.27,41.29,28.6,76.64,67.16,102.22,111.5,54.6,94.63,61.69,206.12,19.46,305.91-40.94,96.72-117.84,163.92-222.41,194.33-30.06,8.74-60.72,13.18-91.14,13.18ZM341.79,39.13c-99.61,0-192.6,48.75-248.75,130.41-32.25,46.91-50.33,98.73-53.73,154.04-3.15,51.2,6.92,103.25,29.12,150.53,22,46.86,55.17,87.51,95.93,117.58,42.9,31.65,93.7,50.92,146.91,55.76,9.95.9,20.81,1.38,31.42,1.38,2.55,0,5.1-.03,7.57-.08,54.54-1.23,110.13-19.17,156.52-50.51,43.61-29.47,77.58-67.99,100.97-114.5,21.89-43.53,33.27-92.71,32.9-142.21-.37-49.45-12.45-98.39-34.95-141.52-24.04-46.09-58.54-84.06-102.54-112.85-48.02-31.42-103.83-48.03-161.38-48.03Z"/>
        <path class="cls-6" d="M341.2,5.42c14.14,0,28.4.87,42.78,2.66,211.86,26.35,352.24,259.47,263.59,468.94-42.33,100-121.51,163.94-220.67,192.79-30.59,8.9-60.92,13.07-90.38,13.07-214.84,0-386.01-221.19-314.65-441.87C68.46,96.91,196.81,5.43,341.2,5.42M342.69,651.54c2.55,0,5.1-.03,7.63-.08,54.47-1.22,111-19.24,157.97-50.98,181.59-122.71,179.81-395.56-3.65-515.59-50.26-32.88-106.84-48.47-162.87-48.47-97.17,0-192.72,46.86-250.98,131.58-134.97,196.29-4.97,461.7,220.21,482.14,9.77.89,20.76,1.39,31.67,1.39M341.23,0h-.03c-36.23,0-71.87,5.66-105.94,16.82-33.57,10.99-65.06,27.14-93.59,47.98-58.69,42.88-101.9,103.23-124.96,174.53-8.81,27.25-14.2,55.3-16.01,83.36-1.74,26.96-.2,54.15,4.58,80.82,9.15,51.09,30.43,100.69,61.53,143.43,30.96,42.55,71.35,77.96,116.8,102.42,23.31,12.54,47.92,22.21,73.14,28.75,26.07,6.76,52.91,10.18,79.77,10.18,30.68,0,61.59-4.47,91.9-13.28,105.37-30.65,182.88-98.38,224.15-195.88,11.01-26.02,18.82-53.13,23.2-80.58,4.22-26.42,5.29-53.37,3.21-80.11-4.01-51.37-19.92-102.42-46.01-147.64-25.78-44.69-61.41-83.54-103.03-112.37-21.38-14.81-44.35-27.03-68.29-36.32-24.73-9.6-50.63-16.13-76.98-19.41-14.43-1.79-29.04-2.7-43.42-2.7h0ZM342.69,646.12c-10.53,0-21.31-.47-31.18-1.37-26.95-2.45-53.23-8.56-78.12-18.17-23.91-9.23-46.6-21.7-67.43-37.07-40.39-29.8-73.27-70.1-95.08-116.55-22.01-46.87-31.99-98.47-28.87-149.22,1.63-26.46,6.8-52.6,15.38-77.69,8.97-26.24,21.72-51.47,37.89-74.99,27.67-40.24,65.33-73.38,108.91-95.82,42.46-21.86,90.04-33.42,137.6-33.42,57.03,0,112.32,16.45,159.9,47.58,21.99,14.39,41.9,31.43,59.18,50.64,16.62,18.48,30.9,39.07,42.44,61.2,22.3,42.75,34.28,91.26,34.64,140.28.37,49.08-10.91,97.82-32.61,140.97-11.23,22.33-25.22,43.16-41.58,61.9-17.01,19.49-36.69,36.84-58.49,51.57-45.96,31.06-101.03,48.83-155.06,50.05-2.45.06-4.98.08-7.51.08h0Z"/>
      </g>
      <g>
        <path class="cls-1" d="M342.69,654.25c-10.77,0-21.81-.48-31.91-1.4-54.2-4.92-105.95-24.56-149.64-56.79-41.48-30.6-75.23-71.97-97.61-119.64-22.59-48.1-32.83-101.07-29.62-153.17,3.46-56.3,21.86-109.05,54.68-156.78C145.74,83.34,240.39,33.72,341.79,33.72c58.61,0,115.44,16.91,164.35,48.91,44.79,29.3,79.9,67.95,104.38,114.88,22.89,43.89,35.19,93.68,35.56,143.98.38,50.36-11.2,100.39-33.48,144.69-23.81,47.35-58.39,86.56-102.78,116.56-47.24,31.92-103.86,50.19-159.43,51.44-2.51.06-5.1.08-7.69.08ZM94.71,318.19c-6.4.64-6.96,1.81-7.57,8.56-2.88,32.12,4.26,68.12,20.63,104.12,15.17,33.36,37.29,64.17,62.26,86.75,39.51,35.72,96.51,61.22,145.21,64.96,1.07.08,3.92.27,7.17.27,6.18,0,9.06-.67,10.33-1.15l.3-261.05c-1.35-.96-4.2-2-10.16-2.47H94.71ZM413.45,537.1c10.78,0,21.88.36,32.61.71,10.67.35,21.71.71,32.38.71h0c9.39,0,17.59-.28,25.07-.85,24.9-1.91,56.32-24.75,65.67-63.34-1.12-16.93-.38-35.18.34-52.84.8-19.75,1.63-40.17-.17-58.57-1.07-10.9-6.87-16.42-18.26-17.39-10.88-.93-22.88-1.38-36.67-1.38-15.75,0-32.1.59-47.91,1.16-15.83.57-32.21,1.16-48.01,1.16-9.66,0-18.3-.21-26.42-.66-10.63,1.8-16.35,7.93-17.48,18.72,1.52,24.06.59,49.71-.31,74.52-.99,27.22-2,55.36.24,81.26.99,11.41,5.89,16.12,18.07,17.35,6.35-.37,13.16-.55,20.81-.55ZM518.8,209.95c-21.75,0-39.44,17.69-39.44,39.44s17.69,39.44,39.44,39.44,39.44-17.69,39.44-39.44-17.69-39.44-39.44-39.44ZM388.77,210.13c-21.67,0-39.3,17.63-39.3,39.3s17.63,39.3,39.3,39.3,39.3-17.63,39.3-39.3-17.63-39.3-39.3-39.3ZM306.11,101.18c-1.33,0-2.7.06-4.06.17-10.68.9-24.4,9-35.42,15.51-2.69,1.59-5.22,3.08-7.6,4.41-30.06,16.82-74.84,42.14-116.42,67.69-1.36.84-2.8,1.69-4.27,2.56-5.69,3.37-12.13,7.19-16.33,11.58-12.11,12.67-15.38,29.51-8.74,45.05,6.52,15.26,21.27,25.12,37.56,25.12h0c5.31,0,10.77-1,16.23-2.97,7.88-4.51,15.76-9.02,23.64-13.53,32.94-18.84,67.01-38.32,100.15-58.03,2.94-1.75,6.24-3.59,9.74-5.55,14.14-7.9,31.75-17.73,38.69-28.85,8.57-13.72,9.32-29.8,2-43.02-6.99-12.61-20.14-20.13-35.19-20.13ZM453.42,128.26c-21.55,0-39.09,17.53-39.09,39.09s17.53,39.09,39.09,39.09,39.09-17.53,39.09-39.09-17.53-39.09-39.09-39.09Z"/>
        <path class="cls-6" d="M341.79,36.43c56.04,0,112.59,15.58,162.87,48.47,183.45,120.03,185.23,392.88,3.65,515.59-46.97,31.74-103.5,49.75-157.97,50.98-2.53.06-5.08.08-7.63.08-10.91,0-21.89-.5-31.67-1.39C85.84,629.71-44.16,364.3,90.81,168.01,149.06,83.29,244.63,36.43,341.79,36.43M150.85,275.97c5.51,0,11.34-1,17.38-3.21,41.42-23.74,83-47.3,124.02-71.7,15-8.92,40.28-20.77,49.35-35.29,19.01-30.43-.65-67.29-35.49-67.29-1.41,0-2.83.06-4.29.18-13.92,1.18-31.7,13.31-44.11,20.25-38.51,21.55-78.97,44.68-116.52,67.75-6.87,4.22-15.59,8.77-21.13,14.57-28.29,29.61-6.12,74.75,30.79,74.75M453.42,209.14c23.08,0,41.8-18.71,41.8-41.8s-18.71-41.8-41.8-41.8-41.8,18.71-41.8,41.8,18.71,41.8,41.8,41.8M518.79,291.54c23.28,0,42.15-18.87,42.15-42.15s-18.87-42.15-42.15-42.15-42.15,18.87-42.15,42.15,18.87,42.15,42.15,42.15M388.77,291.44c23.2,0,42.01-18.81,42.01-42.01s-18.81-42.01-42.01-42.01-42.01,18.81-42.01,42.01,18.81,42.01,42.01,42.01M322.42,585.56c5.15,0,10.95-.46,13.04-2.31l.31-263.79c-2.6-2.97-8.96-3.7-12.76-3.99H94.58c-8.06.8-9.43,3.22-10.13,11.03-6.17,68.9,33.88,148,83.78,193.12,38.03,34.39,95.17,61.69,146.82,65.65,1.69.13,4.43.28,7.38.28M418.52,343.75c-8.98,0-17.85-.19-26.56-.67-12.17,1.96-18.85,9.16-20.05,21.39,3.22,50.39-4.36,106.31-.05,156.06,1.15,13.31,7.61,18.57,20.72,19.84,6.86-.41,13.83-.56,20.87-.56,21.47,0,43.55,1.42,64.99,1.42,8.56,0,17.01-.23,25.29-.86,33.72-2.59,60.75-34.51,68.2-65.81-2.44-35.8,3.58-76.7.13-111.91-1.23-12.53-8.44-18.78-20.73-19.83-12-1.02-24.35-1.39-36.9-1.39-31.58,0-64.39,2.32-95.92,2.32M341.81,31.01v5.42-5.42h-.02c-49.28,0-98.58,11.98-142.56,34.63-45.17,23.26-84.2,57.6-112.88,99.31-16.73,24.33-29.92,50.45-39.21,77.62-8.89,26.01-14.25,53.1-15.94,80.53-3.23,52.55,7.1,105.97,29.88,154.49,22.57,48.08,56.62,89.8,98.46,120.67,21.61,15.94,45.15,28.88,69.96,38.46,25.83,9.97,53.1,16.31,81.05,18.85,10.19.92,21.31,1.41,32.16,1.41,2.61,0,5.22-.03,7.75-.09,56.09-1.26,113.22-19.69,160.89-51.9,22.57-15.25,42.96-33.23,60.58-53.42,16.96-19.43,31.46-41.02,43.1-64.16,22.47-44.68,34.14-95.14,33.77-145.92-.38-50.73-12.78-100.95-35.87-145.22-11.96-22.94-26.76-44.28-43.99-63.43-17.9-19.91-38.53-37.56-61.31-52.46-49.35-32.29-106.68-49.35-165.81-49.35h0ZM150.85,270.55c-15.21,0-28.97-9.21-35.07-23.47-6.2-14.5-3.13-30.24,8.2-42.11,3.94-4.12,10.21-7.84,15.75-11.12,1.5-.89,2.92-1.73,4.3-2.58,41.53-25.52,86.28-50.82,116.33-67.63,2.4-1.34,4.95-2.85,7.65-4.44,10.78-6.37,24.21-14.29,34.27-15.14,1.28-.11,2.57-.16,3.83-.16,14.05,0,26.32,7,32.82,18.74,6.84,12.34,6.12,27.39-1.92,40.27-6.58,10.52-23.84,20.17-37.72,27.92-3.52,1.96-6.84,3.82-9.81,5.58-33.13,19.71-67.2,39.19-100.15,58.03-7.8,4.46-15.6,8.92-23.39,13.39-5.09,1.81-10.17,2.73-15.1,2.73h0ZM453.42,203.72c-20.06,0-36.38-16.32-36.38-36.38s16.32-36.38,36.38-36.38,36.38,16.32,36.38,36.38-16.32,36.38-36.38,36.38h0ZM518.79,286.12c-20.25,0-36.73-16.48-36.73-36.73s16.48-36.73,36.73-36.73,36.73,16.48,36.73,36.73-16.48,36.73-36.73,36.73h0ZM388.77,286.02c-20.18,0-36.59-16.41-36.59-36.59s16.41-36.59,36.59-36.59,36.59,16.41,36.59,36.59-16.41,36.59-36.59,36.59h0ZM94.85,320.9h227.93c4.09.32,6.34.9,7.55,1.37l-.3,257.34c-1.45.27-3.84.53-7.62.53-3.16,0-5.92-.19-6.96-.27-48.15-3.7-104.51-28.92-143.6-64.27-24.71-22.34-46.59-52.84-61.61-85.86-16.18-35.57-23.23-71.1-20.4-102.75.32-3.6.74-4.76,1.03-5.1.06-.06.63-.63,3.98-.99h0ZM418.52,349.17c15.85,0,32.25-.59,48.11-1.16,15.78-.57,32.11-1.16,47.81-1.16,13.71,0,25.63.45,36.44,1.37,10.13.86,14.85,5.34,15.79,14.96,1.78,18.22.96,38.54.16,58.2-.71,17.58-1.45,35.76-.36,52.71-3.64,14.62-11.87,29.29-22.67,40.36-8.36,8.58-22.18,19.11-40.49,20.52-7.42.57-15.55.85-24.87.85-10.63,0-21.64-.36-32.29-.71-10.75-.35-21.87-.71-32.7-.71-7.62,0-14.42.18-20.76.54-10.79-1.13-14.56-4.78-15.43-14.87-2.23-25.73-1.21-53.79-.23-80.93.9-24.79,1.83-50.43.32-74.56,1.04-9.43,5.67-14.41,14.92-16.06,8.07.43,16.66.65,26.25.65h0Z"/>
      </g>
      <g>
        <path class="cls-5" d="M322.42,588.27c-3.31,0-6.17-.18-7.59-.29-49.83-3.83-108.09-29.87-148.43-66.35-25.51-23.07-48.09-54.51-63.56-88.53-16.76-36.85-24.06-73.79-21.1-106.84.77-8.54,2.76-12.52,12.57-13.48h.13s228.66-.02,228.66-.02h.1c5.14.4,11.45,1.31,14.6,4.91l.67.77-.31,266.03-.91.81c-1.45,1.28-4.57,2.99-14.83,2.99Z"/>
        <path class="cls-6" d="M323,315.48c3.8.29,10.16,1.01,12.76,3.99l-.31,263.79c-2.09,1.85-7.89,2.31-13.04,2.31-2.95,0-5.68-.15-7.38-.28-51.65-3.96-108.79-31.26-146.82-65.65-49.89-45.12-89.94-124.22-83.78-193.12.7-7.81,2.08-10.23,10.13-11.03h228.42M323.21,310.06h-.21s-228.42,0-228.42,0h-.27l-.26.03c-11.51,1.13-14.15,6.48-15,15.94-3,33.52,4.37,70.93,21.33,108.21,15.62,34.35,38.43,66.1,64.21,89.42,40.76,36.86,99.65,63.17,150.04,67.04,1.45.11,4.39.3,7.79.3,11.06,0,14.7-1.96,16.63-3.67l1.83-1.62v-2.44s.31-263.79.31-263.79v-2.04s-1.34-1.54-1.34-1.54c-3.79-4.34-10.77-5.39-16.43-5.82l-.21-.02h0Z"/>
      </g>
      <g>
        <path class="cls-2" d="M478.44,543.94c-10.76,0-21.84-.36-32.56-.71-10.69-.35-21.74-.71-32.43-.71-7.63,0-14.41.18-20.71.55h-.21s-.21,0-.21,0c-15-1.45-21.93-8.12-23.16-22.3-2.27-26.23-1.25-54.54-.25-81.92.9-24.75,1.82-50.34.3-74.2v-.22s0-.22,0-.22c1.32-13.43,9.03-21.66,22.31-23.8l.29-.05.29.02c8.09.45,16.73.67,26.41.67,15.71,0,32.03-.59,47.82-1.16,15.86-.57,32.25-1.16,48.1-1.16,13.94,0,26.09.46,37.13,1.4,13.86,1.18,21.88,8.88,23.19,22.27,1.84,18.78,1,39.39.19,59.32-.72,17.66-1.46,35.92-.32,52.67l.03.41-.1.4c-7.34,30.84-34.59,65.12-70.63,67.89-7.62.58-15.96.87-25.49.87Z"/>
        <path class="cls-6" d="M514.44,341.43c12.55,0,24.9.37,36.9,1.39,12.28,1.05,19.5,7.3,20.73,19.83,3.44,35.21-2.57,76.11-.13,111.91-7.45,31.3-34.48,63.22-68.2,65.81-8.27.63-16.73.86-25.29.86-21.44,0-43.52-1.42-64.99-1.42-7.04,0-14.01.15-20.87.56-13.1-1.27-19.57-6.53-20.72-19.84-4.31-49.75,3.27-105.67.05-156.06,1.2-12.23,7.87-19.43,20.05-21.39,8.71.48,17.58.67,26.56.67,31.53,0,64.34-2.32,95.92-2.32M514.44,336.01c-15.9,0-32.32.59-48.2,1.16-15.76.57-32.06,1.15-47.72,1.15-9.63,0-18.22-.22-26.26-.66l-.58-.03-.58.09c-14.63,2.36-23.13,11.42-24.58,26.21l-.04.44.03.44c1.52,23.72.59,49.25-.3,73.93-.99,27.46-2.02,55.86.26,82.25.69,8,3.18,13.87,7.6,17.95,4.19,3.87,9.91,6.03,17.99,6.81l.42.04.42-.02c6.25-.37,12.97-.55,20.55-.55,10.65,0,21.68.36,32.34.71,10.74.35,21.85.71,32.65.71,9.6,0,18.01-.29,25.7-.88,17.16-1.32,33.56-9.53,47.42-23.76,12.49-12.82,21.6-29.23,25.64-46.2l.19-.8-.06-.82c-1.13-16.6-.39-34.79.32-52.38.81-20.02,1.65-40.73-.2-59.69-1.45-14.85-10.33-23.4-25.66-24.7-11.12-.95-23.34-1.41-37.36-1.41h0Z"/>
      </g>
      <g>
        <path class="cls-4" d="M150.85,278.68c-18.47,0-35.17-11.15-42.55-28.4-7.52-17.59-3.86-36.63,9.8-50.92,4.71-4.93,11.5-8.95,17.48-12.5,1.44-.85,2.85-1.69,4.19-2.51,41.67-25.6,86.51-50.96,116.61-67.8,2.32-1.3,4.83-2.78,7.49-4.35,11.5-6.79,25.81-15.23,37.72-16.24,1.51-.13,3.03-.19,4.51-.19,17.05,0,31.98,8.57,39.93,22.92,8.29,14.96,7.49,33.1-2.14,48.52-7.68,12.3-25.96,22.5-40.65,30.71-3.47,1.94-6.74,3.77-9.61,5.47-33.17,19.73-67.26,39.23-100.22,58.08-7.95,4.55-15.9,9.09-23.84,13.64l-.2.11-.22.08c-6.13,2.24-12.29,3.38-18.31,3.38Z"/>
        <path class="cls-6" d="M306.11,98.47c34.85,0,54.51,36.87,35.49,67.29-9.07,14.52-34.35,26.37-49.35,35.29-41.02,24.4-82.61,47.96-124.02,71.7-6.04,2.21-11.88,3.21-17.38,3.21-36.91,0-59.08-45.14-30.79-74.75,5.55-5.8,14.26-10.35,21.13-14.57,37.55-23.07,78.01-46.2,116.52-67.75,12.41-6.95,30.18-19.08,44.11-20.25,1.45-.12,2.88-.18,4.29-.18M306.11,93.05v5.42-5.42c-1.57,0-3.16.07-4.75.2-12.53,1.06-27.13,9.68-38.87,16.61-2.65,1.56-5.14,3.04-7.43,4.32-30.13,16.86-75.01,42.24-116.71,67.86-1.31.81-2.69,1.63-4.16,2.49-6.14,3.64-13.09,7.76-18.06,12.96-7.35,7.69-12.09,16.95-13.7,26.76-1.49,9.09-.33,18.46,3.37,27.1,7.81,18.25,25.48,30.05,45.04,30.05,6.34,0,12.81-1.19,19.24-3.54l.43-.16.4-.23c7.93-4.54,15.86-9.08,23.8-13.62,32.99-18.86,67.1-38.37,100.3-58.13,2.84-1.69,6.1-3.51,9.55-5.44,14.96-8.35,33.57-18.75,41.62-31.64,10.16-16.27,10.99-35.43,2.21-51.27-8.44-15.23-24.25-24.32-42.3-24.32h0Z"/>
      </g>
      <g>
        <path class="cls-3" d="M518.8,294.25c-24.74,0-44.86-20.12-44.86-44.86s20.12-44.86,44.86-44.86,44.86,20.12,44.86,44.86-20.12,44.86-44.86,44.86Z"/>
        <path class="cls-6" d="M518.79,207.24c23.28,0,42.15,18.87,42.15,42.15s-18.87,42.15-42.15,42.15-42.15-18.87-42.15-42.15,18.87-42.15,42.15-42.15M518.79,201.82c-26.23,0-47.57,21.34-47.57,47.57s21.34,47.57,47.57,47.57,47.57-21.34,47.57-47.57-21.34-47.57-47.57-47.57h0Z"/>
      </g>
      <g>
        <path class="cls-3" d="M388.77,294.15c-24.66,0-44.72-20.06-44.72-44.72s20.06-44.72,44.72-44.72,44.72,20.06,44.72,44.72-20.06,44.72-44.72,44.72Z"/>
        <path class="cls-6" d="M388.77,207.42c23.2,0,42.01,18.81,42.01,42.01s-18.81,42.01-42.01,42.01-42.01-18.81-42.01-42.01,18.81-42.01,42.01-42.01M388.77,202c-26.15,0-47.43,21.28-47.43,47.43s21.28,47.43,47.43,47.43,47.43-21.28,47.43-47.43-21.28-47.43-47.43-47.43h0Z"/>
      </g>
      <g>
        <path class="cls-3" d="M453.42,211.85c-24.54,0-44.51-19.97-44.51-44.51s19.96-44.51,44.51-44.51,44.51,19.97,44.51,44.51-19.96,44.51-44.51,44.51Z"/>
        <path class="cls-6" d="M453.42,125.55c23.08,0,41.8,18.71,41.8,41.8s-18.71,41.8-41.8,41.8-41.8-18.71-41.8-41.8,18.71-41.8,41.8-41.8M453.42,120.13c-26.03,0-47.22,21.18-47.22,47.22s21.18,47.22,47.22,47.22,47.22-21.18,47.22-47.22-21.18-47.22-47.22-47.22h0Z"/>
      </g>
    </g>
  </g>
</svg>